<svg xmlns="http://www.w3.org/2000/svg" viewBox="0 0 64 64">
  <defs>
    <linearGradient id="bg" x1="8" y1="5" x2="56" y2="59" gradientUnits="userSpaceOnUse">
      <stop stop-color="#7C6FF2"/>
      <stop offset="1" stop-color="#4B4BC7"/>
    </linearGradient>
  </defs>
  <rect x="3" y="3" width="58" height="58" rx="15" fill="url(#bg)"/>
  <path d="M16 20.5a4.5 4.5 0 0 1 4.5-4.5h23a4.5 4.5 0 0 1 4.5 4.5v16a4.5 4.5 0 0 1-4.5 4.5h-23a4.5 4.5 0 0 1-4.5-4.5v-16Z" fill="#fff" opacity=".96"/>
  <path d="M16 24h32" stroke="#5B5CE2" stroke-width="3"/>
  <circle cx="21" cy="20" r="1.4" fill="#7C6FF2"/>
  <circle cx="26" cy="20" r="1.4" fill="#7C6FF2" opacity=".72"/>
  <path d="M25 31h14M25 36h9" stroke="#5B5CE2" stroke-width="3" stroke-linecap="round"/>
  <path d="m41.5 41.5 6 6" stroke="#fff" stroke-width="4.5" stroke-linecap="round"/>
  <circle cx="37" cy="37" r="7" fill="#5B5CE2" stroke="#fff" stroke-width="3"/>
</svg>
